<svg width="46" height="46" fill="#ffffff" viewBox="0 0 24 24" xmlns="http://www.w3.org/2000/svg">
  <path d="M9.57 10.95V7.99h2.136c1.168 0 1.85.549 1.85 1.485 0 .962-.724 1.476-2.116 1.476H9.57Zm0 4.515h2.278c1.42 0 2.172-.576 2.172-1.652 0-1.062-.78-1.618-2.263-1.618H9.57v3.27Z"></path>
  <path d="M6.723 2.4a4.8 4.8 0 0 0-4.8 4.8v9.6a4.8 4.8 0 0 0 4.8 4.8h9.6a4.8 4.8 0 0 0 4.8-4.8V7.2a4.8 4.8 0 0 0-4.8-4.8h-9.6Zm1.272 14.4V6.654h4.079c1.904 0 3.051.971 3.051 2.532 0 1.061-.78 2.01-1.78 2.18v.12c1.372.14 2.285 1.117 2.285 2.44 0 1.785-1.3 2.874-3.465 2.874h-4.17Z"></path>
</svg>